<svg id="Calque_1" data-name="Calque 1" xmlns="http://www.w3.org/2000/svg" viewBox="0 0 32 27.89"><defs><style>.cls-1{fill:none;}.cls-2{fill:#fff;}.cls-3{fill:#e30613;}.cls-4{fill:#f39200;}.cls-5{fill:#009fe3;}</style></defs><polygon class="cls-1" points="16.01 13.86 16 13.86 16 13.86 16 13.87 16.01 13.88 16.01 13.88 16.01 13.87 16.01 13.86"/><polygon class="cls-2" points="16 13.86 16 13.86 16 13.86 16 13.86"/><polygon class="cls-2" points="16 13.86 16 13.86 16.01 13.86 16 13.86"/><path class="cls-3" d="M8,11.33a9.25,9.25,0,0,1,8,4.59h0a9.26,9.26,0,0,1-1.18-4.62,9.35,9.35,0,0,1,1.24-4.5l0-.12A9.24,9.24,0,0,0,8,2.06H8A9.23,9.23,0,0,0,8,11.33Z" transform="translate(0 -2.06)"/><polygon class="cls-2" points="16.02 13.86 16.01 13.86 16.01 13.87 16.02 13.86"/><path class="cls-4" d="M16.06,6.79A9.21,9.21,0,0,1,16,15.91h0a9.22,9.22,0,0,1,7.88-4.48l.11-.16a9.24,9.24,0,0,0,0-9.12A9.24,9.24,0,0,0,16.06,6.79Z" transform="translate(0 -2.06)"/><polygon class="cls-2" points="16.01 13.88 16.02 13.88 16.01 13.87 16.01 13.88"/><path class="cls-5" d="M23.9,11.44A9.24,9.24,0,0,1,16,15.92h0a9.21,9.21,0,0,1,8.16,4.72A9.24,9.24,0,0,0,32,16.16,9.26,9.26,0,0,0,23.9,11.44Z" transform="translate(0 -2.06)"/><polygon class="cls-2" points="16.01 13.88 16.01 13.88 16.01 13.88 16.01 13.88"/><path class="cls-3" d="M24.18,20.65a1.61,1.61,0,0,1-.22,0A9.22,9.22,0,0,1,16,15.93h0a9.25,9.25,0,0,1-.07,9.4A9.23,9.23,0,0,0,24,29.94a1.94,1.94,0,0,0,.15-.24A9.23,9.23,0,0,0,24.18,20.65Z" transform="translate(0 -2.06)"/><path class="cls-2" d="M16,15.92h0Z" transform="translate(0 -2.06)"/><path class="cls-5" d="M8.12,20.55A9.23,9.23,0,0,1,16,15.93h0a9.21,9.21,0,0,1-4.62-1.22A9.11,9.11,0,0,1,8,11.33,9.22,9.22,0,0,0,0,16,9.25,9.25,0,0,0,8.12,20.55Z" transform="translate(0 -2.06)"/><path class="cls-4" d="M12.66,28.58a9.29,9.29,0,0,0,3.28-3.25l-.1-.15A9.25,9.25,0,0,1,16,15.93h0a9.22,9.22,0,0,1-7.87,4.62l-.07.1a9.25,9.25,0,0,0,.08,9.17A9.22,9.22,0,0,0,12.66,28.58Z" transform="translate(0 -2.06)"/></svg>