<svg id="Calque_1" data-name="Calque 1" xmlns="http://www.w3.org/2000/svg" viewBox="0 0 508.31 443"><defs><style>.cls-1{fill:none;}.cls-2{fill:#fff;}.cls-3{fill:#e30613;}.cls-4{fill:#f39200;}.cls-5{fill:#009fe3;}</style></defs><path class="cls-1" d="M256.15,254.72H256l.07.11.06.11h0l.06-.11Z" transform="translate(-1.85 -34.5)"/><polygon class="cls-2" points="254.16 220.22 254.17 220.23 254.17 220.22 254.16 220.22"/><path class="cls-2" d="M256.08,254.61l-.06.11h.13Z" transform="translate(-1.85 -34.5)"/><path class="cls-3" d="M128.88,181.87A146.76,146.76,0,0,1,256,254.72h0l.06-.11a146.32,146.32,0,0,1,.91-145c-.33-.59-.57-1.19-.91-1.77A146.77,146.77,0,0,0,128.41,34.5l-.13.21A146.78,146.78,0,0,0,128.88,181.87Z" transform="translate(-1.85 -34.5)"/><path class="cls-2" d="M256.28,254.72h-.13l.06.12A.75.75,0,0,0,256.28,254.72Z" transform="translate(-1.85 -34.5)"/><path class="cls-4" d="M257,109.65a146.73,146.73,0,0,1-.91,145l.07.11h.13a146.5,146.5,0,0,1,125.26-71.14c.52-.87,1.13-1.65,1.63-2.53a146.73,146.73,0,0,0,.64-144.92A146.78,146.78,0,0,0,257,109.65Z" transform="translate(-1.85 -34.5)"/><path class="cls-2" d="M256.15,255h.13l-.07-.1Z" transform="translate(-1.85 -34.5)"/><path class="cls-5" d="M381.54,183.58a146.73,146.73,0,0,1-125.26,71.14.75.75,0,0,1-.07.12l.07.1A146,146,0,0,1,385.9,329.8a146.71,146.71,0,0,0,124.25-71.21A146.88,146.88,0,0,0,381.54,183.58Z" transform="translate(-1.85 -34.5)"/><polygon class="cls-2" points="254.3 220.45 254.3 220.44 254.29 220.45 254.3 220.45"/><path class="cls-3" d="M385.9,329.8c-1.17,0-2.31.15-3.49.13a146.75,146.75,0,0,1-126.13-75h-.14a146.85,146.85,0,0,1-1.07,149.3,146.85,146.85,0,0,0,128.65,73.23c.79-1.31,1.68-2.51,2.43-3.85A146.7,146.7,0,0,0,385.9,329.8Z" transform="translate(-1.85 -34.5)"/><path class="cls-2" d="M256,254.73l-.12.23h.25l-.06-.11Z" transform="translate(-1.85 -34.5)"/><path class="cls-5" d="M130.82,328.25A146.72,146.72,0,0,1,255.89,255l.12-.23h0a146.11,146.11,0,0,1-127.13-72.85,146.13,146.13,0,0,0-127,73.44A146.83,146.83,0,0,0,130.82,328.25Z" transform="translate(-1.85 -34.5)"/><path class="cls-4" d="M202.91,455.75a146.21,146.21,0,0,0,52.16-51.49c-.5-.85-1.07-1.62-1.55-2.49A146.77,146.77,0,0,1,256.14,255h-.25a146.35,146.35,0,0,1-125.07,73.29c-.34.57-.73,1.09-1.06,1.68A146.72,146.72,0,0,0,131,475.58,146.18,146.18,0,0,0,202.91,455.75Z" transform="translate(-1.85 -34.5)"/></svg>