<svg id="Calque_1" data-name="Calque 1" xmlns="http://www.w3.org/2000/svg" viewBox="0 0 188.19 164.01"><defs><style>.cls-1{fill:none;}.cls-2{fill:#fff;}.cls-3{fill:#e30613;}.cls-4{fill:#f39200;}.cls-5{fill:#009fe3;}</style></defs><path class="cls-1" d="M96.05,95.53h0l0,0s0,0,0,0h0a.08.08,0,0,1,0,0Z" transform="translate(-1.91 -14)"/><polygon class="cls-2" points="94.1 81.53 94.1 81.53 94.1 81.53 94.1 81.53"/><path class="cls-2" d="M96,95.48s0,0,0,0h0S96,95.5,96,95.48Z" transform="translate(-1.91 -14)"/><path class="cls-3" d="M48.94,68.56A54.29,54.29,0,0,1,96,95.53h0s0,0,0,0a54.16,54.16,0,0,1,.34-53.66c-.12-.22-.22-.44-.34-.66A54.33,54.33,0,0,0,48.76,14l0,.07A54.36,54.36,0,0,0,48.94,68.56Z" transform="translate(-1.91 -14)"/><path class="cls-2" d="M96.1,95.52h0l0,0Z" transform="translate(-1.91 -14)"/><path class="cls-4" d="M96.37,41.82A54.3,54.3,0,0,1,96,95.48s0,0,0,0h0a54.28,54.28,0,0,1,46.38-26.33c.19-.32.42-.61.6-.94a54.31,54.31,0,0,0,.24-53.65A54.33,54.33,0,0,0,96.37,41.82Z" transform="translate(-1.91 -14)"/><path class="cls-2" d="M96.06,95.61h0l0,0A.08.08,0,0,0,96.06,95.61Z" transform="translate(-1.91 -14)"/><path class="cls-5" d="M142.48,69.19A54.3,54.3,0,0,1,96.1,95.52l0,0,0,0a54,54,0,0,1,48,27.71,54.3,54.3,0,0,0,46-26.36A54.36,54.36,0,0,0,142.48,69.19Z" transform="translate(-1.91 -14)"/><polygon class="cls-2" points="94.15 81.62 94.15 81.61 94.15 81.61 94.15 81.62"/><path class="cls-3" d="M144.09,123.32c-.43,0-.85.06-1.29.05A54.36,54.36,0,0,1,96.1,95.61h0a54.37,54.37,0,0,1-.4,55.28A54.37,54.37,0,0,0,143.29,178c.29-.48.62-.93.89-1.43A54.29,54.29,0,0,0,144.09,123.32Z" transform="translate(-1.91 -14)"/><path class="cls-2" d="M96,95.53l0,.08h.09s0,0,0,0Z" transform="translate(-1.91 -14)"/><path class="cls-5" d="M49.65,122.75A54.35,54.35,0,0,1,96,95.61l0-.08h0a54.09,54.09,0,0,1-47.06-27,54.06,54.06,0,0,0-47,27.18A54.34,54.34,0,0,0,49.65,122.75Z" transform="translate(-1.91 -14)"/><path class="cls-4" d="M76.35,170a54.09,54.09,0,0,0,19.3-19.06c-.18-.31-.39-.6-.57-.92a54.36,54.36,0,0,1,1-54.36H96a54.19,54.19,0,0,1-46.31,27.14c-.12.21-.27.4-.39.62a54.34,54.34,0,0,0,.47,53.92A54.09,54.09,0,0,0,76.35,170Z" transform="translate(-1.91 -14)"/></svg>